<svg
    xmlns="http://www.w3.org/2000/svg"
    viewBox="0 0 24 24"
    fill="none"
>
    <!-- 🔼 rechts oben (noch weiter nach rechts) -->
    <path d="M16.6 11.55C16.8 11.65 17.1 11.65 17.4 11.65C19.2 11.65 20.7 10.15 20.7 8.35C20.7 6.55 19.2 5.05 17.4 5.05C17.3 5.05 17.3 5.05 17.2 5.05C17.8 5.85 18.1 6.85 18.1 7.95C18.1 9.25 17.6 10.55 16.6 11.55Z" fill="currentColor"/>

    <!-- 🔽 rechts unten (noch weiter nach rechts) -->
    <path d="M18.9 13.05H18.05C19.55 14.05 20.45 15.75 20.45 17.6C20.45 18 20.35 18.4 20.25 18.8C21.35 18.6 22 18.4 22.45 18.2C22.85 18 23.05 17.5 23.05 17C23.15 14.85 21.25 13.05 18.9 13.05Z" fill="currentColor"/>

    <!-- 🔼 links oben (noch weiter nach links) -->
    <path d="M6.6 11.65C6.9 11.65 7.2 11.65 7.4 11.55C6.4 10.55 5.9 9.25 5.9 7.95C5.9 6.85 6.2 5.85 6.8 5.05C6.7 5.05 6.7 5.05 6.6 5.05C4.8 5.05 3.3 6.55 3.3 8.35C3.3 10.15 4.8 11.65 6.6 11.65Z" fill="currentColor"/>

    <!-- 🔽 links unten (noch weiter nach links) -->
    <path d="M5.9 13.05H5.1C2.8 13.05 1 14.85 1.1 17C1.1 17.5 1.3 18 1.7 18.2C2.15 18.4 2.8 18.65 3.9 18.8C3.8 18.4 3.7 18 3.7 17.6C3.7 15.75 4.5 14.05 5.9 13.05Z" fill="currentColor"/>

    <!-- mitte kopf -->
    <path d="M8.95 10.95C9.85 11.65 10.85 12 12.05 12C13.25 12 14.25 11.65 15.15 10.95C16.25 10.1 16.85 8.9 16.85 7.5C16.85 6.4 16.45 5.3 15.65 4.6C14.75 3.6 13.45 3 12.05 3C10.65 3 9.35 3.6 8.45 4.6C7.65 5.3 7.25 6.4 7.25 7.5C7.25 8.9 7.85 10.1 8.95 10.95Z" fill="currentColor"/>

    <!-- mitte body -->
    <path d="M14.45 13.1C14.15 13.1 13.95 13.1 13.65 13.1H10.25C9.95 13.1 9.75 13.1 9.45 13.1C6.85 13.4 4.85 15.4 4.85 17.7C4.85 18.4 5.15 19 5.65 19.3C6.55 19.8 8.35 20.3 12.05 20.3C15.75 20.3 17.55 19.8 18.45 19.3C18.95 19 19.25 18.4 19.25 17.7C19.25 15.4 17.25 13.4 14.45 13.1Z" fill="currentColor"/>
</svg>