<svg
    xmlns="http://www.w3.org/2000/svg"
    viewBox="0 0 24 24"
    fill="none"
>
    <!-- 🔼 rechts oben (weiter nach rechts) -->
    <path d="M16.3 11.55C16.5 11.65 16.8 11.65 17.1 11.65C18.9 11.65 20.4 10.15 20.4 8.35C20.4 6.55 18.9 5.05 17.1 5.05C17 5.05 17 5.05 16.9 5.05C17.5 5.85 17.8 6.85 17.8 7.95C17.8 9.25 17.3 10.55 16.3 11.55Z" fill="currentColor"/>

    <!-- 🔽 rechts unten (weiter nach rechts) -->
    <path d="M18.6 13.05H17.75C19.25 14.05 20.15 15.75 20.15 17.6C20.15 18 20.05 18.4 19.95 18.8C21.05 18.6 21.7 18.4 22.15 18.2C22.55 18 22.75 17.5 22.75 17C22.85 14.85 20.95 13.05 18.6 13.05Z" fill="currentColor"/>

    <!-- 🔼 links oben (weiter nach links) -->
    <path d="M7.0 11.65C7.3 11.65 7.6 11.65 7.8 11.55C6.8 10.55 6.3 9.25 6.3 7.95C6.3 6.85 6.6 5.85 7.2 5.05C7.1 5.05 7.1 5.05 7.0 5.05C5.2 5.05 3.7 6.55 3.7 8.35C3.7 10.15 5.2 11.65 7.0 11.65Z" fill="currentColor"/>

    <!-- 🔽 links unten (weiter nach links) -->
    <path d="M6.3 13.05H5.5C3.2 13.05 1.4 14.85 1.5 17C1.5 17.5 1.7 18 2.1 18.2C2.55 18.4 3.2 18.65 4.3 18.8C4.2 18.4 4.1 18 4.1 17.6C4.1 15.75 4.9 14.05 6.3 13.05Z" fill="currentColor"/>

    <!-- mitte kopf -->
    <path d="M8.95 10.95C9.85 11.65 10.85 12 12.05 12C13.25 12 14.25 11.65 15.15 10.95C16.25 10.1 16.85 8.9 16.85 7.5C16.85 6.4 16.45 5.3 15.65 4.6C14.75 3.6 13.45 3 12.05 3C10.65 3 9.35 3.6 8.45 4.6C7.65 5.3 7.25 6.4 7.25 7.5C7.25 8.9 7.85 10.1 8.95 10.95Z" fill="currentColor"/>

    <!-- mitte body -->
    <path d="M14.45 13.1C14.15 13.1 13.95 13.1 13.65 13.1H10.25C9.95 13.1 9.75 13.1 9.45 13.1C6.85 13.4 4.85 15.4 4.85 17.7C4.85 18.4 5.15 19 5.65 19.3C6.55 19.8 8.35 20.3 12.05 20.3C15.75 20.3 17.55 19.8 18.45 19.3C18.95 19 19.25 18.4 19.25 17.7C19.25 15.4 17.25 13.4 14.45 13.1Z" fill="currentColor"/>
</svg>