<svg viewBox="0 0 24 24" fill="none" xmlns="http://www.w3.org/2000/svg">
    <g stroke="currentColor" stroke-width="2" stroke-linecap="round" stroke-linejoin="round">

        <path d="M13 3a3 3 0 0 0 -3 3v12a3 3 0 0 0 3 3" />
        <path d="M7 3a3 3 0 0 1 3 3v12a3 3 0 0 1 -3 3" />

        <path d="M14 7h6a1 1 0 0 1 1 1v8a1 1 0 0 1 -1 1h-6" />
        <path d="M6 7h-1a1 1 0 0 0 -1 1v8a1 1 0 0 0 1 1h1" />

        <circle cx="17" cy="12" r="0.5" fill="currentColor"/>
        <circle cx="14" cy="12" r="0.5" fill="currentColor"/>

    </g>
</svg>